<svg width="386" height="82" viewBox="0 0 386 82" fill="none" xmlns="http://www.w3.org/2000/svg">
<path d="M318.012 32.006H288.194C288.696 39.436 294.418 44.355 302.25 44.355C306.567 44.355 310.482 42.749 313.193 39.637L315.904 42.749C312.691 46.564 307.772 48.572 302.149 48.572C291.005 48.572 283.475 41.042 283.475 30.4C283.475 19.858 290.804 12.328 300.844 12.328C310.884 12.328 318.113 19.657 318.113 30.4C318.012 30.902 318.012 31.504 318.012 32.006ZM288.194 28.392H313.394C312.792 21.464 307.671 16.545 300.744 16.545C293.916 16.545 288.796 21.464 288.194 28.392Z" fill="black"/>
<path d="M200.043 43.351H195.224V48.271H200.043V43.351Z" fill="black"/>
<path d="M213.396 12.428C207.272 12.428 202.452 14.938 199.842 19.255V12.729H195.224V40.54H200.043V29.597C200.043 21.464 204.862 16.745 212.492 16.745C219.219 16.745 223.135 20.561 223.135 28.091V48.271H227.954V27.689C227.954 17.448 222.03 12.428 213.396 12.428Z" fill="black"/>
<path d="M265.001 13.332C263.295 12.729 261.287 12.428 259.178 12.428C253.054 12.428 248.235 14.938 245.624 19.255V12.729H241.006V48.371H245.825V29.597C245.825 21.464 250.644 16.745 258.275 16.745C259.379 16.745 260.383 16.846 261.287 17.047L265.001 13.332Z" fill="black"/>
<path d="M267.712 14.637L264.198 18.1509C267.311 19.8579 269.017 23.171 269.017 28.191V48.371H273.836V27.689C273.836 21.364 271.527 17.047 267.712 14.637Z" fill="black"/>
<path d="M179.662 16.946L176.449 20.159C178.959 22.569 180.565 26.183 180.565 30.5C180.565 38.833 174.943 44.355 167.413 44.355C159.883 44.355 154.16 38.833 154.16 30.5C154.16 22.167 159.883 16.645 167.413 16.645C170.023 16.645 172.333 17.248 174.24 18.452L177.453 15.24C174.642 13.432 171.228 12.428 167.413 12.428C156.972 12.428 149.241 19.958 149.241 30.5C149.241 41.042 156.972 48.673 167.413 48.673C177.855 48.673 185.485 41.143 185.485 30.5C185.385 24.878 183.276 20.159 179.662 16.946Z" fill="black"/>
<path d="M329.257 28.3921C330.161 21.2631 335.48 16.6451 342.61 16.6451C346.73 16.6451 350.54 18.3521 352.95 21.9661L356.57 19.557C353.75 14.838 348.63 12.5291 342.61 12.5291C332.671 12.5291 325.342 19.0551 324.338 28.4921H329.257V28.3921Z" fill="black"/>
<path d="M342.61 44.355C335.28 44.355 329.86 39.536 329.157 32.006H324.237C324.94 41.845 332.37 48.672 342.51 48.672C348.53 48.672 353.65 46.263 356.47 41.644L352.85 39.235C350.54 42.749 346.73 44.355 342.61 44.355Z" fill="black"/>
<path d="M382.77 12.729H377.75V16.7451H382.77V12.729Z" fill="black"/>
<path d="M383.47 42.749C382.17 43.954 380.16 44.5559 378.15 44.5559C374.14 44.5559 372.03 42.2469 372.03 38.0299V16.745H376.75V12.729H372.03V4.89795H367.21V12.729H360.88V16.745H367.21V38.2309C367.21 44.7569 370.92 48.572 377.65 48.572C380.46 48.572 383.27 47.769 385.18 46.062L383.47 42.749Z" fill="black"/>
<path d="M112.294 43.351H107.274V48.271H112.294V43.351Z" fill="black"/>
<path d="M138.9 8.21204L145.928 0.983032H140.104L135.887 5.30002L138.9 8.21204Z" fill="black"/>
<path d="M125.346 22.368L137.494 9.71804L134.482 6.70603L112.294 29.5971V0.983032H107.274V40.54H112.294V35.821L122.032 26.083L141.309 48.371H147.333L125.346 22.368Z" fill="black"/>
<path d="M126.347 64.312H128.882V75.817H136.019V77.962H126.347V64.312ZM141.86 67.4319C143.394 67.4319 144.564 67.802 145.37 68.543C146.189 69.271 146.598 70.376 146.598 71.858V77.962H144.297V76.694C143.998 77.149 143.569 77.5 143.01 77.747C142.464 77.981 141.801 78.098 141.021 78.098C140.241 78.098 139.559 77.968 138.974 77.708C138.389 77.435 137.934 77.065 137.609 76.597C137.297 76.116 137.141 75.5759 137.141 74.9779C137.141 74.0419 137.485 73.295 138.174 72.736C138.876 72.1639 139.975 71.8779 141.47 71.8779H144.161V71.722C144.161 70.994 143.94 70.435 143.498 70.045C143.069 69.655 142.425 69.46 141.567 69.46C140.982 69.46 140.404 69.551 139.832 69.733C139.273 69.915 138.798 70.168 138.408 70.493L137.453 68.719C137.999 68.303 138.655 67.9839 139.422 67.7629C140.189 67.5419 141.002 67.4319 141.86 67.4319ZM141.528 76.324C142.139 76.324 142.679 76.187 143.147 75.914C143.628 75.628 143.966 75.2249 144.161 74.7049V73.496H141.645C140.241 73.496 139.539 73.958 139.539 74.881C139.539 75.323 139.715 75.674 140.066 75.934C140.417 76.194 140.904 76.324 141.528 76.324ZM158.333 78.098C157.488 78.098 156.663 77.988 155.857 77.767C155.051 77.546 154.407 77.2659 153.926 76.9279L154.862 75.0759C155.33 75.3879 155.889 75.641 156.539 75.836C157.202 76.018 157.852 76.109 158.489 76.109C159.945 76.109 160.673 75.726 160.673 74.959C160.673 74.595 160.485 74.341 160.108 74.198C159.744 74.055 159.152 73.919 158.333 73.789C157.475 73.659 156.773 73.509 156.227 73.34C155.694 73.171 155.226 72.879 154.823 72.463C154.433 72.034 154.238 71.442 154.238 70.6879C154.238 69.6999 154.648 68.914 155.467 68.329C156.299 67.731 157.417 67.4319 158.821 67.4319C159.536 67.4319 160.251 67.516 160.966 67.685C161.681 67.841 162.266 68.056 162.721 68.329L161.785 70.181C160.901 69.661 159.906 69.4009 158.801 69.4009C158.086 69.4009 157.54 69.512 157.163 69.733C156.799 69.941 156.617 70.22 156.617 70.571C156.617 70.961 156.812 71.241 157.202 71.41C157.605 71.566 158.223 71.715 159.055 71.858C159.887 71.988 160.569 72.1379 161.102 72.3069C161.635 72.4759 162.09 72.762 162.467 73.165C162.857 73.568 163.052 74.14 163.052 74.881C163.052 75.856 162.63 76.636 161.785 77.221C160.94 77.806 159.789 78.098 158.333 78.098ZM169.831 78.098C168.778 78.098 167.829 77.871 166.984 77.416C166.139 76.961 165.476 76.33 164.995 75.524C164.527 74.705 164.293 73.7819 164.293 72.7549C164.293 71.7279 164.527 70.812 164.995 70.006C165.476 69.2 166.139 68.569 166.984 68.114C167.829 67.659 168.778 67.4319 169.831 67.4319C170.897 67.4319 171.853 67.659 172.698 68.114C173.543 68.569 174.199 69.2 174.667 70.006C175.148 70.812 175.389 71.7279 175.389 72.7549C175.389 73.7819 175.148 74.705 174.667 75.524C174.199 76.33 173.543 76.961 172.698 77.416C171.853 77.871 170.897 78.098 169.831 78.098ZM169.831 76.012C170.728 76.012 171.469 75.713 172.054 75.115C172.639 74.517 172.932 73.7299 172.932 72.7549C172.932 71.7799 172.639 70.994 172.054 70.396C171.469 69.798 170.728 69.499 169.831 69.499C168.934 69.499 168.193 69.798 167.608 70.396C167.036 70.994 166.75 71.7799 166.75 72.7549C166.75 73.7299 167.036 74.517 167.608 75.115C168.193 75.713 168.934 76.012 169.831 76.012ZM177.72 63.493H180.157V77.962H177.72V63.493ZM193.438 67.549V77.962H191.118V76.636C190.728 77.104 190.24 77.4679 189.655 77.7279C189.07 77.9749 188.44 78.098 187.764 78.098C186.373 78.098 185.274 77.715 184.468 76.948C183.675 76.168 183.279 75.017 183.279 73.496V67.549H185.716V73.165C185.716 74.101 185.924 74.803 186.34 75.271C186.769 75.726 187.374 75.9529 188.154 75.9529C189.025 75.9529 189.714 75.687 190.221 75.154C190.741 74.608 191.001 73.828 191.001 72.814V67.549H193.438ZM202.889 77.396C202.603 77.63 202.252 77.806 201.836 77.923C201.433 78.04 201.004 78.098 200.549 78.098C199.405 78.098 198.521 77.7989 197.897 77.2009C197.273 76.6029 196.961 75.732 196.961 74.588V69.577H195.245V67.627H196.961V65.248H199.399V67.627H202.187V69.577H199.399V74.5299C199.399 75.0369 199.522 75.427 199.769 75.7C200.016 75.96 200.374 76.09 200.842 76.09C201.388 76.09 201.843 75.947 202.207 75.661L202.889 77.396ZM204.894 67.549H207.332V77.962H204.894V67.549ZM206.123 65.833C205.681 65.833 205.31 65.696 205.011 65.423C204.712 65.137 204.563 64.786 204.563 64.37C204.563 63.954 204.712 63.61 205.011 63.337C205.31 63.051 205.681 62.908 206.123 62.908C206.565 62.908 206.935 63.0439 207.234 63.3169C207.533 63.5769 207.683 63.909 207.683 64.312C207.683 64.741 207.533 65.105 207.234 65.404C206.948 65.69 206.578 65.833 206.123 65.833ZM215.211 78.098C214.158 78.098 213.209 77.871 212.364 77.416C211.519 76.961 210.856 76.33 210.375 75.524C209.907 74.705 209.673 73.7819 209.673 72.7549C209.673 71.7279 209.907 70.812 210.375 70.006C210.856 69.2 211.519 68.569 212.364 68.114C213.209 67.659 214.158 67.4319 215.211 67.4319C216.277 67.4319 217.232 67.659 218.077 68.114C218.922 68.569 219.579 69.2 220.047 70.006C220.528 70.812 220.768 71.7279 220.768 72.7549C220.768 73.7819 220.528 74.705 220.047 75.524C219.579 76.33 218.922 76.961 218.077 77.416C217.232 77.871 216.277 78.098 215.211 78.098ZM215.211 76.012C216.108 76.012 216.849 75.713 217.434 75.115C218.019 74.517 218.311 73.7299 218.311 72.7549C218.311 71.7799 218.019 70.994 217.434 70.396C216.849 69.798 216.108 69.499 215.211 69.499C214.314 69.499 213.573 69.798 212.988 70.396C212.416 70.994 212.13 71.7799 212.13 72.7549C212.13 73.7299 212.416 74.517 212.988 75.115C213.573 75.713 214.314 76.012 215.211 76.012ZM229.008 67.4319C230.321 67.4319 231.374 67.8149 232.167 68.5819C232.96 69.3489 233.356 70.487 233.356 71.995V77.962H230.919V72.3069C230.919 71.3969 230.704 70.7139 230.275 70.2589C229.846 69.7909 229.235 69.5569 228.442 69.5569C227.545 69.5569 226.837 69.8299 226.317 70.3759C225.797 70.9089 225.537 71.683 225.537 72.697V77.962H223.099V67.549H225.42V68.894C225.823 68.413 226.33 68.049 226.941 67.802C227.552 67.555 228.241 67.4319 229.008 67.4319ZM252.036 63.493V77.962H249.696V76.616C249.293 77.11 248.793 77.4809 248.195 77.7279C247.61 77.9749 246.96 78.098 246.245 78.098C245.244 78.098 244.34 77.877 243.534 77.435C242.741 76.993 242.117 76.369 241.662 75.563C241.207 74.744 240.98 73.8079 240.98 72.7549C240.98 71.7019 241.207 70.773 241.662 69.967C242.117 69.161 242.741 68.537 243.534 68.095C244.34 67.653 245.244 67.4319 246.245 67.4319C246.934 67.4319 247.564 67.549 248.136 67.783C248.708 68.017 249.196 68.3679 249.599 68.8359V63.493H252.036ZM246.537 76.012C247.122 76.012 247.649 75.882 248.117 75.622C248.585 75.349 248.955 74.965 249.228 74.471C249.501 73.977 249.638 73.4049 249.638 72.7549C249.638 72.1049 249.501 71.533 249.228 71.039C248.955 70.545 248.585 70.168 248.117 69.908C247.649 69.635 247.122 69.499 246.537 69.499C245.952 69.499 245.426 69.635 244.958 69.908C244.49 70.168 244.119 70.545 243.846 71.039C243.573 71.533 243.437 72.1049 243.437 72.7549C243.437 73.4049 243.573 73.977 243.846 74.471C244.119 74.965 244.49 75.349 244.958 75.622C245.426 75.882 245.952 76.012 246.537 76.012ZM265.014 72.814C265.014 72.983 265.001 73.223 264.975 73.535H256.804C256.947 74.302 257.318 74.913 257.916 75.368C258.527 75.81 259.281 76.031 260.178 76.031C261.322 76.031 262.264 75.654 263.005 74.9L264.312 76.402C263.844 76.961 263.252 77.383 262.537 77.669C261.822 77.955 261.016 78.098 260.119 78.098C258.975 78.098 257.968 77.871 257.097 77.416C256.226 76.961 255.55 76.33 255.069 75.524C254.601 74.705 254.367 73.7819 254.367 72.7549C254.367 71.7409 254.594 70.831 255.049 70.025C255.517 69.206 256.161 68.569 256.98 68.114C257.799 67.659 258.722 67.4319 259.749 67.4319C260.763 67.4319 261.666 67.659 262.459 68.114C263.265 68.556 263.889 69.187 264.331 70.006C264.786 70.812 265.014 71.748 265.014 72.814ZM259.749 69.3819C258.969 69.3819 258.306 69.6159 257.76 70.0839C257.227 70.5389 256.902 71.15 256.785 71.917H262.693C262.589 71.163 262.271 70.5519 261.738 70.0839C261.205 69.6159 260.542 69.3819 259.749 69.3819ZM278.516 67.4319C279.53 67.4319 280.434 67.653 281.227 68.095C282.033 68.537 282.663 69.161 283.118 69.967C283.573 70.773 283.801 71.7019 283.801 72.7549C283.801 73.8079 283.573 74.744 283.118 75.563C282.663 76.369 282.033 76.993 281.227 77.435C280.434 77.877 279.53 78.098 278.516 78.098C277.112 78.098 276.001 77.63 275.182 76.694V81.745H272.744V67.549H275.065V68.914C275.468 68.42 275.962 68.049 276.547 67.802C277.145 67.555 277.801 67.4319 278.516 67.4319ZM278.243 76.012C279.14 76.012 279.875 75.713 280.447 75.115C281.032 74.517 281.324 73.7299 281.324 72.7549C281.324 71.7799 281.032 70.994 280.447 70.396C279.875 69.798 279.14 69.499 278.243 69.499C277.658 69.499 277.132 69.635 276.664 69.908C276.196 70.168 275.825 70.545 275.552 71.039C275.279 71.533 275.143 72.1049 275.143 72.7549C275.143 73.4049 275.279 73.977 275.552 74.471C275.825 74.965 276.196 75.349 276.664 75.622C277.132 75.882 277.658 76.012 278.243 76.012ZM289.957 67.4319C291.491 67.4319 292.661 67.802 293.467 68.543C294.286 69.271 294.696 70.376 294.696 71.858V77.962H292.395V76.694C292.096 77.149 291.667 77.5 291.108 77.747C290.562 77.981 289.899 78.098 289.119 78.098C288.339 78.098 287.656 77.968 287.071 77.708C286.486 77.435 286.031 77.065 285.706 76.597C285.394 76.116 285.238 75.5759 285.238 74.9779C285.238 74.0419 285.583 73.295 286.272 72.736C286.974 72.1639 288.072 71.8779 289.567 71.8779H292.258V71.722C292.258 70.994 292.037 70.435 291.595 70.045C291.166 69.655 290.523 69.46 289.665 69.46C289.08 69.46 288.501 69.551 287.929 69.733C287.37 69.915 286.896 70.168 286.506 70.493L285.55 68.719C286.096 68.303 286.753 67.9839 287.52 67.7629C288.287 67.5419 289.099 67.4319 289.957 67.4319ZM289.626 76.324C290.237 76.324 290.776 76.187 291.244 75.914C291.725 75.628 292.063 75.2249 292.258 74.7049V73.496H289.743C288.339 73.496 287.637 73.958 287.637 74.881C287.637 75.323 287.812 75.674 288.163 75.934C288.514 76.194 289.002 76.324 289.626 76.324ZM297.824 67.549H300.261V77.962H297.824V67.549ZM299.052 65.833C298.61 65.833 298.24 65.696 297.941 65.423C297.642 65.137 297.492 64.786 297.492 64.37C297.492 63.954 297.642 63.61 297.941 63.337C298.24 63.051 298.61 62.908 299.052 62.908C299.494 62.908 299.865 63.0439 300.164 63.3169C300.463 63.5769 300.612 63.909 300.612 64.312C300.612 64.741 300.463 65.105 300.164 65.404C299.878 65.69 299.507 65.833 299.052 65.833ZM313.25 72.814C313.25 72.983 313.237 73.223 313.211 73.535H305.04C305.183 74.302 305.554 74.913 306.152 75.368C306.763 75.81 307.517 76.031 308.414 76.031C309.558 76.031 310.5 75.654 311.241 74.9L312.548 76.402C312.08 76.961 311.488 77.383 310.773 77.669C310.058 77.955 309.252 78.098 308.355 78.098C307.211 78.098 306.204 77.871 305.333 77.416C304.462 76.961 303.786 76.33 303.305 75.524C302.837 74.705 302.603 73.7819 302.603 72.7549C302.603 71.7409 302.83 70.831 303.285 70.025C303.753 69.206 304.397 68.569 305.216 68.114C306.035 67.659 306.958 67.4319 307.985 67.4319C308.999 67.4319 309.902 67.659 310.695 68.114C311.501 68.556 312.125 69.187 312.567 70.006C313.022 70.812 313.25 71.748 313.25 72.814ZM307.985 69.3819C307.205 69.3819 306.542 69.6159 305.996 70.0839C305.463 70.5389 305.138 71.15 305.021 71.917H310.929C310.825 71.163 310.507 70.5519 309.974 70.0839C309.441 69.6159 308.778 69.3819 307.985 69.3819ZM328.734 67.4319C330.047 67.4319 331.087 67.8149 331.854 68.5819C332.621 69.3359 333 70.474 333 71.995V77.962H330.567V72.3069C330.567 71.3969 330.365 70.7139 329.962 70.2589C329.559 69.7909 328.981 69.5569 328.227 69.5569C327.408 69.5569 326.751 69.8299 326.257 70.3759C325.763 70.9089 325.516 71.676 325.516 72.677V77.962H323.079V72.3069C323.079 71.3969 322.877 70.7139 322.474 70.2589C322.071 69.7909 321.493 69.5569 320.739 69.5569C319.907 69.5569 319.244 69.8239 318.75 70.3569C318.269 70.8899 318.028 71.663 318.028 72.677V77.962H315.591V67.549H317.911V68.875C318.301 68.407 318.789 68.049 319.374 67.802C319.959 67.555 320.609 67.4319 321.324 67.4319C322.104 67.4319 322.793 67.5809 323.391 67.8799C324.002 68.1659 324.483 68.595 324.834 69.167C325.263 68.621 325.815 68.199 326.491 67.9C327.167 67.588 327.915 67.4319 328.734 67.4319ZM346 72.814C346 72.983 345.99 73.223 345.96 73.535H337.79C337.94 74.302 338.31 74.913 338.91 75.368C339.52 75.81 340.27 76.031 341.17 76.031C342.31 76.031 343.25 75.654 343.99 74.9L345.3 76.402C344.83 76.961 344.24 77.383 343.53 77.669C342.81 77.955 342.01 78.098 341.11 78.098C339.96 78.098 338.96 77.871 338.09 77.416C337.22 76.961 336.54 76.33 336.06 75.524C335.59 74.705 335.36 73.7819 335.36 72.7549C335.36 71.7409 335.58 70.831 336.04 70.025C336.51 69.206 337.15 68.569 337.97 68.114C338.79 67.659 339.71 67.4319 340.74 67.4319C341.75 67.4319 342.66 67.659 343.45 68.114C344.25 68.556 344.88 69.187 345.32 70.006C345.78 70.812 346 71.748 346 72.814ZM340.74 69.3819C339.96 69.3819 339.3 69.6159 338.75 70.0839C338.22 70.5389 337.89 71.15 337.77 71.917H343.68C343.58 71.163 343.26 70.5519 342.73 70.0839C342.19 69.6159 341.53 69.3819 340.74 69.3819ZM354.25 67.4319C355.57 67.4319 356.62 67.8149 357.41 68.5819C358.21 69.3489 358.6 70.487 358.6 71.995V77.962H356.16V72.3069C356.16 71.3969 355.95 70.7139 355.52 70.2589C355.09 69.7909 354.48 69.5569 353.69 69.5569C352.79 69.5569 352.08 69.8299 351.56 70.3759C351.04 70.9089 350.78 71.683 350.78 72.697V77.962H348.34V67.549H350.67V68.894C351.07 68.413 351.58 68.049 352.19 67.802C352.8 67.555 353.49 67.4319 354.25 67.4319ZM367.95 77.396C367.67 77.63 367.32 77.806 366.9 77.923C366.5 78.04 366.07 78.098 365.61 78.098C364.47 78.098 363.59 77.7989 362.96 77.2009C362.34 76.6029 362.03 75.732 362.03 74.588V69.577H360.31V67.627H362.03V65.248H364.46V67.627H367.25V69.577H364.46V74.5299C364.46 75.0369 364.59 75.427 364.83 75.7C365.08 75.96 365.44 76.09 365.91 76.09C366.45 76.09 366.91 75.947 367.27 75.661L367.95 77.396Z" fill="black"/>
<path d="M29.4849 41.587C29.4849 47.435 34.2259 52.176 40.0719 52.176C45.9209 52.175 50.6619 47.435 50.6619 41.587C50.6619 35.74 45.9209 30.999 40.0719 30.999C34.2259 30.999 29.4849 35.74 29.4849 41.587ZM0.846924 12.525C0.846924 18.374 5.58589 23.112 11.4359 23.112C17.2829 23.112 22.0229 18.374 22.0229 12.525C22.0229 6.67797 17.2829 1.93596 11.4359 1.93596C5.58689 1.93696 0.846924 6.67797 0.846924 12.525ZM1.66992 70.567C1.66992 76.414 6.41189 81.155 12.2589 81.155C18.1069 81.155 22.8469 76.415 22.8479 70.567C22.8479 64.719 18.1069 59.979 12.2589 59.978C6.41189 59.979 1.66992 64.719 1.66992 70.567ZM57.7899 13.281C57.7899 19.128 62.5299 23.87 68.3769 23.87C74.2259 23.868 78.9669 19.128 78.9669 13.281C78.9669 7.43398 74.2269 2.69197 68.3769 2.69197C62.5299 2.69197 57.7899 7.43198 57.7899 13.281ZM59.1099 69.173C59.1119 75.02 63.8519 79.761 69.6989 79.761C75.5459 79.76 80.2859 75.02 80.2879 69.173C80.2859 63.324 75.5459 58.584 69.6989 58.584C63.8519 58.584 59.1099 63.324 59.1099 69.173ZM39.6329 79.8C33.7379 79.397 29.6279 76.106 29.6009 70.064C29.5999 69.963 29.5959 69.863 29.5959 69.762C29.5959 69.471 29.6089 69.183 29.6339 68.898C29.9329 64.112 32.2069 61.828 35.5749 60.647C36.5829 60.21 37.6769 59.932 38.8259 59.852C39.8339 59.686 40.8939 59.564 41.9949 59.462L41.9999 59.46L42.0169 59.459L42.3549 59.422C43.8729 59.227 45.1919 58.904 46.6299 58.388L46.6689 58.372L46.7709 58.333L46.9459 58.266L46.9759 58.254L46.9929 58.249L47.0779 58.214C51.1279 56.83 54.5039 53.987 56.5779 50.309C57.7969 48.145 58.5549 45.519 58.8299 42.904C59.3959 37.456 58.6839 34.375 63.9549 31.417C65.5249 30.533 67.3359 30.024 69.2669 30.037C75.1159 30.083 79.8209 34.866 79.7739 40.716C79.7519 43.716 78.4809 46.416 76.4619 48.326C76.2769 48.502 76.0799 48.665 75.8869 48.832C73.5259 50.88 69.3969 50.431 66.2539 50.621L66.2389 50.624L66.1239 50.639L65.7789 50.687H65.7739L65.6649 50.706L65.3569 50.757L65.3219 50.762L65.2949 50.766L65.2069 50.782L64.9819 50.825L64.8679 50.849L64.7549 50.87L64.6439 50.895L64.5329 50.919L64.4199 50.943L64.3559 50.958L64.3079 50.97L64.1959 50.996L64.0849 51.023L63.9739 51.051L63.9719 51.053L63.7529 51.109L63.6429 51.139L63.5329 51.168L63.4289 51.196L63.4229 51.199L63.3129 51.231L63.2039 51.263L63.0959 51.297L62.8789 51.364L62.7709 51.399L62.6629 51.432L62.5539 51.468L62.4479 51.503L62.3409 51.542L62.2349 51.578L62.1289 51.616L62.0219 51.656L61.9169 51.695L61.8109 51.735L61.7059 51.777L61.4959 51.86L61.4409 51.88L61.3879 51.903L61.3329 51.925L61.2789 51.947L61.2239 51.971L61.2039 51.976L61.1709 51.992L61.1159 52.015L60.9559 52.086L60.9029 52.109L60.8479 52.133C59.1639 52.884 57.6119 53.872 56.2269 55.052L55.9739 55.269L55.9529 55.286C51.9549 58.852 49.6699 63.589 49.4489 69.124C49.4629 69.333 49.4689 69.544 49.4689 69.757C49.4689 69.988 49.4599 70.214 49.4449 70.441L49.4519 70.623H49.4319C48.9949 75.673 44.7829 79.642 39.6309 79.693V79.795L39.6329 79.8ZM10.9979 51.645C5.1029 51.242 0.992895 47.949 0.966895 41.909C0.963895 41.809 0.960889 41.707 0.960889 41.607C0.960889 41.317 0.974926 41.027 0.998926 40.741C1.29793 35.956 3.57092 33.673 6.93892 32.491C7.94792 32.054 9.04192 31.776 10.1909 31.696C11.1969 31.529 12.2589 31.407 13.3579 31.307L13.3649 31.306L13.3819 31.304L13.7199 31.265C15.2379 31.072 16.5569 30.749 17.9949 30.233L18.0339 30.217L18.1359 30.177L18.3099 30.11L18.3409 30.099L18.3569 30.092L18.4419 30.058C22.4929 28.675 25.8689 25.832 27.9419 22.154C29.1619 19.989 29.9209 17.364 30.1949 14.747C30.7609 9.3 30.0489 6.21896 35.3199 3.26096C36.8899 2.37796 38.6999 1.86798 40.6329 1.88098C46.4809 1.92698 51.1869 6.70998 51.1399 12.56C51.1169 15.56 49.8459 18.26 47.8269 20.171C47.6419 20.345 47.4449 20.509 47.2519 20.677C44.8909 22.724 40.7609 22.274 37.6179 22.466L37.6039 22.468L37.4889 22.482L37.1449 22.532H37.1389L37.0309 22.549L36.7219 22.6L36.6869 22.606L36.6609 22.61L36.5719 22.627L36.3469 22.67L36.2329 22.693L36.1199 22.716L36.0089 22.74L35.8969 22.762L35.7849 22.787L35.7209 22.803L35.6729 22.813L35.5609 22.84L35.4499 22.867L35.3389 22.895L35.3359 22.896L35.1179 22.953L35.0079 22.982L34.8969 23.013L34.7949 23.04L34.7879 23.044L34.6779 23.075L34.5689 23.108L34.4609 23.142L34.2439 23.207L34.1349 23.242L34.0259 23.277L33.9189 23.312L33.8119 23.348L33.7059 23.386L33.5999 23.423L33.4929 23.459L33.3869 23.5L33.2809 23.539L33.1769 23.58L33.0709 23.62L32.8619 23.703L32.8069 23.725L32.7529 23.746L32.6979 23.769L32.6439 23.791L32.5889 23.815L32.5709 23.821L32.5359 23.836L32.4809 23.86L32.3209 23.93L32.2679 23.953L32.2129 23.978C30.5289 24.728 28.9749 25.717 27.5909 26.895L27.3389 27.112L27.3199 27.131C23.3209 30.697 21.0359 35.434 20.8139 40.969C20.8279 41.178 20.8339 41.389 20.8339 41.601C20.8339 41.831 20.8249 42.059 20.8099 42.286L20.8169 42.467H20.7969C20.3599 47.518 16.1479 51.486 10.9959 51.537V51.64L10.9979 51.645Z" fill="url(#paint0_linear_28_100)"/>
<defs>
<linearGradient id="paint0_linear_28_100" x1="0.893924" y1="41.561" x2="97.1049" y2="41.402" gradientUnits="userSpaceOnUse">
<stop stop-color="#F00E74"/>
<stop offset="1" stop-color="#F48624"/>
</linearGradient>
</defs>
</svg>
